/* XPM */
static char *_850e1f1602443f1bd7fd037ea494588zYfkn5iqngMvcWnt[] = {
/* columns rows colors chars-per-pixel */
"46 46 174 2 ",
"   c None",
".  c #EF9411",
"X  c #E69B13",
"o  c #EB9C11",
"O  c #EAA00A",
"+  c #EAA414",
"@  c #E6AB17",
"#  c #EBAB16",
"$  c #ECA51C",
"%  c #E7AF18",
"&  c #ECAA1B",
"*  c #F1A61C",
"=  c #F2AA1E",
"-  c #E7B01D",
";  c #EA9A27",
":  c #F08F34",
">  c #F58F3B",
",  c #EE9536",
"<  c #EE9D35",
"1  c #EE953B",
"2  c #ED983B",
"3  c #F39536",
"4  c #F49C34",
"5  c #F89F32",
"6  c #F3943A",
"7  c #F8943B",
"8  c #F49938",
"9  c #EFAE23",
"0  c #EEAA28",
"q  c #F4A725",
"w  c #F8A727",
"e  c #F4AE25",
"r  c #F8AE25",
"t  c #F4A52D",
"y  c #F8A52E",
"u  c #F5AC2A",
"i  c #F9AB2B",
"p  c #EEB222",
"a  c #ECBB27",
"s  c #ECB52D",
"d  c #EEBB2A",
"f  c #F5B027",
"g  c #F0B827",
"h  c #F4B22A",
"j  c #F9B12A",
"k  c #F3BA2C",
"l  c #EDA033",
"z  c #EDAA34",
"x  c #EEA33A",
"c  c #EEA93A",
"v  c #F4A233",
"b  c #F8A331",
"n  c #F4AA31",
"m  c #F3A639",
"M  c #F3AF3B",
"N  c #EFBF31",
"B  c #ECB63A",
"V  c #F3B535",
"C  c #F5BC35",
"Z  c #F2B43B",
"A  c #F2BB3C",
"S  c #EFC42A",
"D  c #F3C22F",
"F  c #EBDB2D",
"G  c #F7D62D",
"H  c #F8D72B",
"J  c #F3D82E",
"K  c #EFC231",
"L  c #EEC63E",
"P  c #EFCB3C",
"I  c #F4C434",
"U  c #F3CB35",
"Y  c #F4C33B",
"T  c #FAC53F",
"R  c #F5CC3A",
"E  c #F9CD3A",
"W  c #EED636",
"Q  c #EFDA34",
"!  c #EDD43B",
"~  c #EFD93D",
"^  c #F4D634",
"/  c #F8D732",
"(  c #F3D934",
")  c #F3D53C",
"_  c #F9D53C",
"`  c #F3DA3D",
"'  c #F8DA3D",
"]  c #F0E03D",
"[  c #F1BE45",
"{  c #EFC441",
"}  c #F0C144",
"|  c #F5CC41",
" . c #F8C842",
".. c #EED641",
"X. c #EEDA41",
"o. c #F2D744",
"O. c #F5D747",
"+. c #F4D642",
"@. c #F8D642",
"#. c #F3D941",
"$. c #F3DA40",
"%. c #F3DA41",
"&. c #F2DB41",
"*. c #F3D842",
"=. c #F2DA43",
"-. c #F4D941",
";. c #F6D840",
":. c #F5DA40",
">. c #F7DB41",
",. c #F4D943",
"<. c #F6D843",
"1. c #F5DB42",
"2. c #F7DA43",
"3. c #F2DC40",
"4. c #F0DC41",
"5. c #F5DD41",
"6. c #F6DC40",
"7. c #F6DD43",
"8. c #F3D944",
"9. c #F3DB45",
"0. c #F4D944",
"q. c #F5D945",
"w. c #F7D944",
"e. c #F7D847",
"r. c #F4DA42",
"t. c #F8D941",
"y. c #F9DA41",
"u. c #F9DA42",
"i. c #FADE43",
"p. c #F8DB41",
"a. c #F0D748",
"s. c #F5DD4B",
"d. c #F3DB4C",
"f. c #F5DA4C",
"g. c #F4DC4E",
"h. c #F2DA4A",
"j. c #F8DB4B",
"k. c #EFDD54",
"l. c #EEDC56",
"z. c #EEDE55",
"x. c #EFDC58",
"c. c #F1DF56",
"v. c #F2DD54",
"b. c #F0DD5F",
"n. c #F2DC5F",
"m. c #F1DC5E",
"M. c #EEE041",
"N. c #EFE15A",
"B. c #EDE25D",
"V. c #F2E056",
"C. c #EFDF64",
"Z. c #F1DF6C",
"A. c #EFDD74",
"S. c #EFE062",
"D. c #EFE166",
"F. c #EFE366",
"G. c #EFE169",
"H. c #F1E261",
"J. c #F0E068",
"K. c #F4E26F",
"L. c #F3E16A",
"P. c #F4E270",
"I. c #F2E272",
"U. c #F1E785",
"Y. c #F3E587",
"T. c #F1E787",
"R. c #F0E887",
"E. c #F2E68A",
"W. c #F6E89C",
"Q. c #F3E7A6",
"!. c #F3ECB4",
"~. c #F2EBB6",
"^. c #F3EAB9",
"/. c #F5F0DC",
/* pixels */
"                                    Y.L.C.h.` _ f.n.F.R.!.                                  ",
"                              K.` ( ' ( ` ` ' ( ( ~ Q ( ( 5.P.                              ",
"                          s.( ) +.4.` $.-.+.9.4.$.` 4.$.q.-._ ( d.                          ",
"                      V.( ' q.$.` X.( ` 5.5.` ' ' ` ' ' ` $.` -.` Q v.                      ",
"                    ( _ -.` $.( ' 5.O.| { { A C Y Y +.+.q.` ( X.! -._ (                     ",
"                C.( ` ' -.$.` `  .Z m 2 1 1 > 3 6 6 6 m B R @.X.*.q.` u.^ N.                ",
"              l./ $.` $.' ' Y x , 6 1 2 3 6 6 6 6 3 6 6 : 3 < [ q.4.9.$.9.J l.              ",
"            l.) 9.4.' ] | z , 7 3 1 1 , 7 3 M x 3 7 6 6 6 1 > 1 c | ' ` -.q.^ k.            ",
"          C./ q.$.;.u.Y 1 6 7 6 6 6 6 7 : [ i.@.; 7 7 8 6 3 3 8 7 3 Y w.-.-.o./ H.          ",
"          J $.$.;.` Z : 6 8 6 6 7 , 8 m c +.( ` 0 4 4 3 8 8 4 4 5 3 6 V u.` ;.9./           ",
"        ( ` 4.` u.B 6 6 6 6 6 7 2 A ) ~ -.-.` ;.4.` R V 4 4 4 v v v v 4 C ` ` *.q.(         ",
"      V._ ' $.' Y 6 6 6 6 6 7 < R M.` X.' $.-.-.` *.` M.T t v t v v v b 4 { 5.' ` _ v.      ",
"      ( ` -.' R 6 6 6 6 6 2 3 Y 5.` -.$.` -.` ` ) *.' ` ' N t t t t t v v v ) ' 9.-.( W.    ",
"    v.( ` -.` z 7 6 6 6 7 1 l *.4.' 4.` ) ) ` ` ! ;.*.;.` ~ $ q u t u t u b s -.-.-.' v.    ",
"    ( q.` `  .1 7 6 6 6 6 6 [ ` ;.` M.^ X C 5.5.& d 4.` -.-.9 q h r u u u i t Y -.*.` ( ^.  ",
"  I./ *.( -.x 7 6 1 6 6 7 1 m ` ;.-.q.+ . R -.-.& q ) -.$.5.p = j u u u u u i h ' $.;./ I.  ",
"  -.;.) ' } 6 6 1 6 6 6 7 3 A ] ;.-.U o t R -.5.& e _ ) ) ' % * h u f h e f h e U 4.` @.a.  ",
"~.) 9.*.u.B > > 6 6 8 8 6 3 Z ' *.$.U X n R 5.4.# & f & & $ + q h f f f f f f e k 4.( *.) ~.",
"T.' $.;.q.x 1 1 8 3 8 6 6 6 M ' ..) $.s q U 4.$.& = r r f j i u h u e h f h f f h *.) ..) R.",
"D.( o.' +.2 1 6 6 6 8 3 3 3 l ' ` ) X.;.k U 4.$.& * j f h 0 0 h f f f f f e e f f ) $.o.( Z.",
"x.~ -.-.L 1 3 1 6 1 6 3 5 4 t C -.X.` ` $.) $.*.a g k u u e f f h f e r f f f f e R ` 4.( C.",
"d.$.` 5.Y 6 6 6 6 6 8 4 8 4 v w Y ;.-.` ) -.$.` -.~ *.E k f h f e f h f f f f j f K 9.( ( f.",
"' o.( 9.C 6 8 6 6 6 8 3 5 v v n q g U ) 7.` ` ` ` $.$.$.-.I e h e j f f f f f e e I q.' ;.` ",
"( ( $.' Y 7 6 8 6 8 3 v v t t u u e e p a ) $.X.' $.$.` ` $.a e g r f f u f h r e U q.` ;.;.",
"d.` -.5.Y 6 6 6 3 8 8 v v v i i u f f f = U 4.-.a U q.$.$.4.U & r f f f f f f f e U -.-.( d.",
"x.~ -.4.R 6 3 6 6 8 8 v v v n u u e e f e R 9.q.@ & U 5.-.-.( + e f f f f f f f e R 5.q.~ V.",
"G.' $.( @.3 7 6 6 3 4 v t t V U U U U k q E ` 4.= = k ` $.;.~ + f f f h f f f f u ) ` 4.( F.",
"R.( $.` *.m 6 6 8 8 4 v t w I -.4.' i.p = U ` 5.& = j ' -.` ) + e r f e f f f e h ` ' q.( R.",
"^.( q.*.~ V > 1 3 8 b v t t A $.` _ 5.d & R -.5.& * k -.' *.U + e f f f f h u e C ] ( h.) !.",
"  $.' $.] T , , 3 8 4 v t w k -.` _ $.! q U ` -.# 9 ' 4.' $.S o h h e h f f r e E ' ` -.o.  ",
"  I./ $.` o.x 1 3 4 v v t u 9 U -...! X.R ) ` ` D _ u.` ~ 7.@ + h u f f r h u g ;.$.$.^ A.  ",
"    ( $.....[ 6 7 4 4 v t q u f E X.X...$.$.` ` 4.` -.M.7.d X u f e f f f f e U -.$.! W ^.  ",
"    v.( ) o.q.z 7 4 4 t t q u u e a P ;.;.$.` ` $.5.) U & X u h e f e h f e g ;.$.~ ~ l.    ",
"      ) e.` ` | 3 4 v v t t u h f e e 9 p P ' ` a 9 # o & h h e h f h r f f _ ` ` q.^ Q.    ",
"      v._ ` ` 5.{ < v v v u u h e j h f q U 4.i.# * f f j h f f h e f r e I $.X.' _ v.      ",
"        Q q.$.$.' A 4 v t u u u h f f f f g ) K O r f f f u f f f f h e I -.$.~ +.W         ",
"          G $.` -.5.C l t t u u e h f r f f e + # f e f f f f f r r f I ` ' ` 9.(           ",
"          B./ 9.` ` 4.Y z t u u f f e h f f f f r f h r f f f j r f I -.$.) $./ B.          ",
"            l.^ q.' ( 4.R V 0 u r f f f f f u f f h f h h e e f k E -.` *.o.) k.            ",
"              V.( 9.$.~ ~ 9.R h e e e e f f r r r f e e e r k U -.` -.-.*./ k.              ",
"                B.G @.@.$.~ 4.u.R I g f f e r r e e e g I R ;.9.$.$.+.e.H B.                ",
"                    F ~ q.' $.` X.$.` R U U U I U U ' ` ` X.` ) ~ f.@.F                     ",
"                      V./ ` 4.` ` ;.o.! ` $.q.5.` ( ` ` ' ) $...! / v.                      ",
"                          j.( ( $.o...a.-.-.$.` $.h.$.` u.-.W ^ f.                          ",
"                              I.d.! ) ( ( -.-.-.` ( ` ' ) ..A.                              ",
"                                /.^.R.L.s.7.q.+.q.s.Z.E.!./.                                "
};
