/* XPM */
static char *_6cfe3f0c9cf48009250300063cc93f4wgfqzz9Onf0FuBlR[] = {
/* columns rows colors chars-per-pixel */
"46 46 167 2 ",
"   c None",
".  c #711C00",
"X  c #762609",
"o  c #792708",
"O  c #7F3419",
"+  c #B6120F",
"@  c #BC1413",
"#  c #82320D",
"$  c #9A2E19",
"%  c #80351A",
"&  c #853A1C",
"*  c #BB221F",
"=  c #833E25",
"-  c #B82622",
";  c #BF2926",
":  c #BC2F2B",
">  c #C21515",
",  c #C91717",
"<  c #CD1818",
"1  c #C11D1C",
"2  c #D41B1B",
"3  c #C02A27",
"4  c #C62B29",
"5  c #CC2E2B",
"6  c #D72020",
"7  c #D92323",
"8  c #D12F2D",
"9  c #DA2A2A",
"0  c #D2302E",
"q  c #DD3131",
"w  c #DB3D3D",
"e  c #88401F",
"r  c #8D4316",
"t  c #994B1A",
"y  c #A44D0F",
"u  c #A54F14",
"i  c #A75014",
"p  c #A85217",
"a  c #A2521F",
"s  c #88462E",
"d  c #8B482F",
"f  c #9B5222",
"g  c #9B5A2C",
"h  c #9E5F37",
"j  c #9E5F38",
"k  c #945436",
"l  c #B14225",
"z  c #A55421",
"x  c #A85720",
"c  c #A15D27",
"v  c #AC5B23",
"b  c #A75E28",
"n  c #AF5F28",
"m  c #A7493A",
"M  c #BF443F",
"N  c #9F6039",
"B  c #AE6026",
"V  c #AF622D",
"C  c #A9682F",
"Z  c #A6642C",
"A  c #A86632",
"S  c #AB6D35",
"D  c #A3643B",
"F  c #AC6739",
"G  c #AC6D3D",
"H  c #AE7037",
"J  c #AF7138",
"K  c #B3743B",
"L  c #B7793F",
"P  c #B8793E",
"I  c #965F4B",
"U  c #BB5B48",
"Y  c #976451",
"T  c #9B6652",
"R  c #9D6954",
"E  c #B47441",
"W  c #BB7444",
"Q  c #B67943",
"!  c #BA7C42",
"~  c #BD7A49",
"^  c #A36E5A",
"/  c #AC7655",
"(  c #A7745E",
")  c #AD7959",
"_  c #B37B56",
"`  c #AF7F64",
"'  c #C34540",
"]  c #CE4242",
"[  c #D84745",
"{  c #E14141",
"}  c #E24A4A",
"|  c #E25453",
" . c #CD605E",
".. c #CE7874",
"X. c #E26969",
"o. c #BD8046",
"O. c #BD8249",
"+. c #BD865B",
"@. c #BF885E",
"#. c #B88C6A",
"$. c #AC8A7D",
"%. c #B48878",
"&. c #BD9776",
"*. c #C0844D",
"=. c #C18453",
"-. c #C38A55",
";. c #C68C5B",
":. c #C1865D",
">. c #C58D6B",
",. c #C88E6C",
"<. c #C79160",
"1. c #C99365",
"2. c #CD9A6E",
"3. c #CB976A",
"4. c #C09470",
"5. c #C89371",
"6. c #CF9C70",
"7. c #C19B7B",
"8. c #C6A07F",
"9. c #BD8D8B",
"0. c #BA9B8A",
"q. c #BCB9B7",
"w. c #BDBCBA",
"e. c #BAB4B1",
"r. c #C78786",
"t. c #C69796",
"y. c #D49797",
"u. c #E18A86",
"i. c #EC9E9E",
"p. c #C6A180",
"a. c #D3AD93",
"s. c #D5B197",
"d. c #D5B39C",
"f. c #D8BCA5",
"g. c #D7B3AE",
"h. c #DBBFAB",
"j. c #C4BFBD",
"k. c #D7B5B0",
"l. c #EBA2A2",
"z. c #E2BAB4",
"x. c #E5BFBD",
"c. c #EBBBBA",
"v. c #E5C3BC",
"b. c #C7C7C7",
"n. c #CDC8C5",
"m. c #C7C9C9",
"M. c #C8C9C9",
"N. c #CBC6C4",
"B. c #D0CFCF",
"V. c #D0CFCF",
"C. c #DDC5C1",
"Z. c #D0CFD0",
"A. c #D0CFD0",
"S. c #D0D2D2",
"D. c #E1D7D2",
"F. c #ECD0D0",
"G. c #E5DBD5",
"H. c #E7DDD6",
"J. c #E4DAD6",
"K. c #E8DED7",
"L. c #E9DFD8",
"P. c #EAE0DA",
"I. c #EDE3DC",
"U. c #EDE9E6",
"Y. c #F3EDED",
"T. c #F4F3F3",
"R. c #F6F8F8",
/* pixels */
"                                                                                            ",
"                                        d.d.d.d.f.f.s.a.a.s.a.a.a.a.h.                      ",
"                                      W o.! P ! 6.6.;.*.O.+. .! W W W s.                    ",
"                                    +.n p i y  .6.*.;.1.6.6.1.O.K n v :.U.                  ",
"                                    K u a D I ;.-.o.o.o.o.o.-.<.3.3.K W I.                  ",
"                                    V u 0.b.q.p.*.o.o.o.o.o.o.P ! ! ! K L.                  ",
"                                    v A N.b.w.p.*.o.o.! ! ! o.P ! P P Q K.                  ",
"                                    n _ B.b.w.p.*.o.! o.! o.! ! ! P P W P.                  ",
"                                    x ) B.m.w.8.*.o.! ! o.o.! ! P ! K Q J.                  ",
"                                    x O.S.m.w.8.*.o.o.! o.! ! P ! L K Q L.                  ",
"                                    a +.B.b.w.8.*.! o.! ! ! P P K ! E Q P.                  ",
"                                    c O.B.b.w.8.*.! ! ! ! ! ! ! ! P K E J.                  ",
"                                    x +.B.b.w.8.o.! o.! ! ! P P L K K Q P.                  ",
"                                    a ) B.b.w.8.*.! ! ! P P P P L L K E K.                  ",
"                                    a ) B.m.j.8.*.o.! ! P P P P E K K E J.                  ",
"                                T.D.a / B.n.w.8.o.! ! ! P P P P K K K E P.                  ",
"                              Y.i.v.z ) B.b.w.8.*.P ! L Q L L L E K K E J.                  ",
"                              l.} z.a / B.m.w.8.*.! ! P P L L K K K K J                     ",
"                            c.{ q k.f / S.m.w.8.o.! P L L L K K K K H E                     ",
"                          F.| 7 9 u.l U y.y.t.7.O.P ! L L L L K K K H D                     ",
"                          X.7 2 7 q q q q q [ 5.o.L K Q K K L K K K H E                     ",
"                          9 2 2 2 2 2 2 2 2 8 ,.O.v t K L K K K K J H G                     ",
"                        q 2 2 2 2 2 2 2 2 2 8 ,.O.t # H L K K K H K H G                     ",
"                      w 2 < 2 2 2 2 2 2 2 2 8 ,.O.f # K K K K J K H H G                     ",
"                      < < < < < < < < < < < 4 >.! J A K K K K J K H H D                     ",
"                      , , , , , , , , , , , 4 ,.O.E Q K K K K J H H H D                     ",
"                      ] > > , > > > > > > > 3 >.Q Q K K K K J J H H H D                     ",
"                        4 > > > > > > > > > ; >.O.J K K K K K J H H S D                     ",
"                          1 @ @ > @ > > @ > : 1.o.K K K J K J J J S S D                     ",
"                            @ @ @ @ @ @ @ @ : >.Q K K K J J J J H S S D                     ",
"                             .+ * ..$ m r.r.9.&.o.J K K J J J H S S S D                     ",
"                              M * g.s R S.m.w.0.Q K J J J H H H S S S D                     ",
"                              v.] g.& T B.b.w.7.! J K H J H H H S S S N                     ",
"                                C.C.& T S.b.w.7.Q K K J G H H S S S C N                     ",
"                                R.S.% T V.M.w.7.Q K J H H S S S S C S N                     ",
"                                T.J.% T V.N.q.7.Q J H H H S S S S H C N                     ",
"                                  D.% Y A.M.w.7.Q H J H S S S S S S C N                     ",
"                                  D.% Y A.M.w.&.K G J H S S S S S C C N                     ",
"                                  J.% T A.M.w.7.Q H H S S S S S C C C N                     ",
"                                    % I M.b.q.7.E H S S S S S S S S S N                     ",
"                                    % s N.M.q.&.E S S S S S S C C H S k                     ",
"                                    d X $.j.e.#.J S S S S S S S H H f k                     ",
"                                    %.. X = = g J J S S C C b g f r o                       ",
"                                        R R R ) J S E +.4.#.` ` ^                           ",
"                                                                                            ",
"                                                                                            "
};
