/* XPM */
static char *aca452ba67284ff0838db036a5611959VzqB8sInMFEOIfYk[] = {
/* columns rows colors chars-per-pixel */
"46 46 253 2 ",
"   c None",
".  c #060101",
"X  c #170707",
"o  c #270904",
"O  c #320E00",
"+  c #3A1704",
"@  c #231215",
"#  c #3B231C",
"$  c #3D2107",
"%  c #121D3C",
"&  c #590707",
"*  c #571204",
"=  c #4D090C",
"-  c #680304",
";  c #780205",
":  c #630908",
">  c #48240A",
",  c #552809",
"<  c #472316",
"1  c #5A3317",
"2  c #65320C",
"3  c #673819",
"4  c #6F350F",
"5  c #50352B",
"6  c #623A2A",
"7  c #663C33",
"8  c #733527",
"9  c #491336",
"0  c #594435",
"q  c #6B4026",
"w  c #774627",
"e  c #694337",
"r  c #7B4D39",
"t  c #7C543D",
"y  c #6F401E",
"u  c #041A4B",
"i  c #001454",
"p  c #001B5C",
"a  c #061E53",
"s  c #000B53",
"d  c #09245A",
"f  c #0C254F",
"g  c #323357",
"h  c #001763",
"j  c #0B2964",
"k  c #0C2A6B",
"l  c #062364",
"z  c #0D2D73",
"x  c #072B78",
"c  c #0D317C",
"v  c #0C3076",
"b  c #10327B",
"n  c #142D6B",
"m  c #25386D",
"M  c #2B1B55",
"N  c #493049",
"B  c #543378",
"V  c #1E417D",
"C  c #384366",
"Z  c #554E4E",
"A  c #75574B",
"S  c #5B5477",
"D  c #6F5669",
"F  c #6F7373",
"G  c #6F6147",
"H  c #8B0102",
"J  c #860708",
"K  c #980407",
"L  c #861013",
"P  c #A80307",
"I  c #B9030A",
"U  c #B61115",
"Y  c #AA262A",
"T  c #A12631",
"R  c #CA0409",
"E  c #D50405",
"W  c #C60B12",
"Q  c #D60914",
"!  c #CF1415",
"~  c #EA0609",
"^  c #F70408",
"/  c #F90D12",
"(  c #EB1418",
")  c #FC1314",
"_  c #F8161B",
"`  c #D21B29",
"'  c #D12C35",
"]  c #EC2627",
"[  c #F62827",
"{  c #EF3639",
"}  c #F91620",
"|  c #995626",
" . c #844A3A",
".. c #875539",
"X. c #945A37",
"o. c #8B4F28",
"O. c #A65D2C",
"+. c #B46D35",
"@. c #B51E50",
"#. c #A62A53",
"$. c #C62748",
"%. c #895C48",
"&. c #925341",
"*. c #8B5257",
"=. c #9B6548",
"-. c #9B6959",
";. c #8C6B5A",
":. c #A76A47",
">. c #B4744A",
",. c #A86A56",
"<. c #AB755C",
"1. c #B77859",
"2. c #B16D52",
"3. c #906F69",
"4. c #A97862",
"5. c #B77D63",
"6. c #BC7A7A",
"7. c #AF7A71",
"8. c #D45956",
"9. c #EF5E5D",
"0. c #C27858",
"q. c #C67A65",
"w. c #D4696B",
"e. c #E76562",
"r. c #F17370",
"t. c #E05F61",
"y. c #B9B926",
"u. c #CCBC04",
"i. c #F6F00E",
"p. c #D1D027",
"a. c #8F8B7C",
"s. c #BA8863",
"d. c #A8927C",
"f. c #AF8C75",
"g. c #B2A07C",
"h. c #D5894C",
"j. c #CC824B",
"k. c #CA8B6A",
"l. c #D78C67",
"z. c #D8976A",
"x. c #CF9478",
"c. c #D29170",
"v. c #E49B77",
"b. c #F28A7D",
"n. c #D1A07B",
"m. c #E8A07D",
"M. c #E38B5C",
"N. c #D6E646",
"B. c #042E87",
"V. c #0D3383",
"C. c #0C3888",
"Z. c #113585",
"A. c #12398D",
"S. c #13368A",
"D. c #0B3B96",
"F. c #123B94",
"G. c #123D9C",
"H. c #163996",
"J. c #083AA7",
"K. c #133DA2",
"L. c #0239B1",
"P. c #253F89",
"I. c #4A3494",
"U. c #15429B",
"Y. c #354E90",
"T. c #1242A4",
"R. c #1444AB",
"E. c #1747AC",
"W. c #0A43B8",
"Q. c #1446B3",
"!. c #1549B4",
"~. c #174BBA",
"^. c #194CBD",
"/. c #1947B7",
"(. c #0842AD",
"). c #3055B1",
"_. c #2976A0",
"`. c #515C82",
"'. c #586A90",
"]. c #717C97",
"[. c #013FC2",
"{. c #0C4DC5",
"}. c #154DC3",
"|. c #194CC3",
" X c #1C52CA",
".X c #1853C9",
"XX c #074AD5",
"oX c #0D58D3",
"OX c #1754D5",
"+X c #0C54CC",
"@X c #2359CB",
"#X c #1354E2",
"$X c #5674C2",
"%X c #9B6585",
"&X c #CF7F80",
"*X c #768996",
"=X c #4492A6",
"-X c #5791D0",
";X c #748ECB",
":X c #75C5DF",
">X c #848686",
",X c #848A96",
"<X c #9B9B9B",
"1X c #979797",
"2X c #959193",
"3X c #AF9892",
"4X c #9CA29F",
"5X c #B4A697",
"6X c #9196A4",
"7X c #828DB2",
"8X c #9BA4AA",
"9X c #ABABAB",
"0X c #A8A5A4",
"qX c #BDBDBD",
"wX c #B3B4B5",
"eX c #B2B0AF",
"rX c #C18685",
"tX c #F48E8C",
"yX c #C9A890",
"uX c #F2AC84",
"iX c #FAB58B",
"pX c #F2AC93",
"aX c #D7B1A8",
"sX c #E7A6A4",
"dX c #F1B1A7",
"fX c #D79FA3",
"gX c #FDC599",
"hX c #F4CA9B",
"jX c #D6C9AE",
"kX c #FCD5A7",
"lX c #F3D4B7",
"zX c #FDE6B7",
"xX c #FEF5BB",
"cX c #F9E5AC",
"vX c #D0C198",
"bX c #B1B9CA",
"nX c #92A8D1",
"mX c #C5BECD",
"MX c #ADC1D2",
"NX c #A8DBED",
"BX c #C4C5C7",
"VX c #D2CBC5",
"CX c #C7CCD3",
"ZX c #D5D5D7",
"AX c #CCD9DC",
"SX c #EED2D2",
"DX c #D7E0D5",
"FX c #F4F1D7",
"GX c #DBEBF4",
"HX c #E9E8E8",
"JX c #F7F7F7",
"KX c #F5F3EB",
"LX c #E1DAE2",
/* pixels */
"                                    sX9.{ ) ^ / _ ] 8.sX                                    ",
"                                b.[ / ^ [ r.tXtXr.] ~ E ! rX                                ",
"                              ] ^ ) _ r.JXr.pXsXe.HXe.~ E P Y                               ",
"                            ^ / _ ) [ JXr.9.&XtXe.t.BXQ E I P P rX                          ",
"                          ~ / ) ) ) } sXt.dXFXSXfX8.6.Q R R P P H 6.                        ",
"                        ~ ( / / ) ) / ( { ` Q ! W ' W R R I P P P H aX                      ",
"                      ' ~ ~ / ~ R P K K H J J J ; J J J K K K P K H #.                      ",
"                      Q E R P ; : o X @ 7  . . ...e @ X o = : - J H J                       ",
"                      W R ; & 8 < < q < < X.X.  X.< < 6 1 5  .& - H J                       ",
"                      w.P * =.k.s.n.aXBX3Xz.yXv.q.2X9X3X<.X.2.A O - 2.                      ",
"                      zXs.* M.cXxXFXNX=X=XDXxXgXyX=X_.NXlXk.1.r X 3 4.aX                    ",
"                    pXuXn.* O.xXzXKX:Xi N jXcXgXyXN s -XSXuXl.3 o &.=.=.                    ",
"                      kXc.* n.vXjXFXGX0XzXxXzXzXkXiX3.CXlXx.s.=.O 8 =.4.                    ",
"                      xXcXk.FX0 o G d.xXzXcXzXkXiXm.n.-.e X # x... .X.                      ",
"                        kXgXkXg.@ . + x.iXiXuXm.x.c.3.. . X t s.5.<.                        ",
"                            uXkXhX5 . X 6 %.-.-.%.0 X . # 4.0.1.                            ",
"                              v.uXiXc.s.%.0 e 6 # 5 &.=.5.2.s.                              ",
"                                5X7.uXiXgXgXm.k.q.q.5.<.*.3X                                ",
"                            b.t.@XL.P.*.0.w.q.,.,.&.7 M % f *.rX                            ",
"                        tX_ ~ `  X#X[.T ^ Q W U K H O p d u & ; L f.                        ",
"                      { ^ ) ^ @.#X@XoXB $.$.' ` Y #.I.(.Y.D.9 - ; H Y                       ",
"                    } ) [ ~ ! %XN.i.'.[.oX#X.X.X{.{.W.a.i.p.Z : - L R W                     ",
"                9.^ ) _ ! R I.*Xi.y.`.|.@X.X.X.X|.E.W.'.p.u.Z M : H ( ~ E 8.                ",
"              { / _ ( W K B XX|.).K.[.@X#X@X.X|.^./.Q.J.S.V B.D.M ; ( _ ( E '               ",
"          SX_ ^ ) ^ W P & /.OX.X+X.X@XOX X X|.^.~.~.Q.E.K.H.A.V.k = I ( ~ ^ E U             ",
"        HXSXlXsXw.Y K & N ~.+X}..X.X X X X.X^.~.~.Q.R.T.G.S.V.k x 5 - P { r.aXfX3X0X        ",
"        LXJXGXCXbX6XN ;.bXJ.~.~.^.|.^.|.^.^.!.E.T.T.K.F.S.c z j h   -.*.BXAXAXCXwX>X9X      ",
"        JXJXKXLXCX*XN     B.Q.Q.!.!.!.!.E.E.R.K.G.F.A.C.v z j j i     2X          CX9XbX    ",
"        JXJXHXLXZX8X6X    Z.G.K.T.U.T.T.T.U.D.F.F.Z.b z k j d d d                 ZXjX6XjX  ",
"        JXZXwXMXCXCX6X    Y.B.A.A.U.F.F.A.Z.V.c z k k j d a d p Y.                ZXwX<X>X  ",
"        HXwX0XeXHXbX,X    Y.D.G.C.V.v x k k k j d d d a u f d h m             ZXHXDX4XF a.].",
"        ZXwX<X9XLX>XCX    J.Q.E.T.U.C.k d d s u d f a l n b Z.b u           <XDXZXqXF D F 9X",
"    BX9X<XqX>XF 0XCX    nXJ.^.Q.Q.T.F.v k a '.'.% j Z.G.T.D.D.S.i 6X      6XF <X  <X<XeX    ",
"                        $X(.^.Q.Q.T.A.v p g     g x T.R.T.T.G.F.l `.                        ",
"                        ).W./.~.Q.K.Z.z i *X    ].x U.R.R.R.U.F.x m                         ",
"                      MXL.~.~.!.R.F.b n i         x U.T.E.T.T.H.A.h bX                      ",
"                      ;XL.~.~.Q.T.D.x h m         P.G.K.R.R.K.F.A.l ].                      ",
"                      @X(.~.!.R.G.V.z h S         '.B.U.R.R.G.F.C.x m                       ",
"                      }.|.}.~.R.F.V.x h *X        7XB.U.R.T.T.H.F.Z.l CX                    ",
"                    $XXX#XoX}.T.H.c k h           bXx U.R.!./. X{.W.B.'.                    ",
"                  f.D D S Y.~.(.U.V.x a           MXB.R.W.{.oX^.).S A e -.jX                ",
"              s.j.M.h.+.O.| w Z g g z d bX        bXV.H.Y.S ;.:.h.h.j.>.| o.A               ",
"            f.+.z.v.l.>.X.w 3 2 , , < O 3X        5X2 o.| O.+.j.z.v.k.+.| o., ;.            ",
"            ..X.>.2.:.X.w 3 , > > > + + VX        ZX2 2 3 w ..:.>.>.:...w 2 * 5             ",
"            3X2 y w y 1 , > + + $ 5 0 5X            aXt w 1 3 w w w 8 1 , > O a.            ",
"              d.t ..w q q 0 G 3.jXHXKX                  FXVXd.-.X.r w q 6 0 a.              "
};
