/* XPM */
static char *_78d1f6029234d7dad4bf531c71ecaf7VqNfigUzBPdFkthn[] = {
/* columns rows colors chars-per-pixel */
"46 46 182 2 ",
"   c #3E5232",
".  c #424E2E",
"X  c #475625",
"o  c #495B27",
"O  c #44542E",
"+  c #49542E",
"@  c #4A5A2D",
"#  c #455433",
"$  c #495633",
"%  c #475835",
"&  c #4B5A34",
"*  c #46533C",
"=  c #49523A",
"-  c #465838",
";  c #4C5B3A",
":  c #505F35",
">  c #505F3B",
",  c #4F6223",
"<  c #5C6E2F",
"1  c #4F613A",
"2  c #526336",
"3  c #566B34",
"4  c #5B6D35",
"5  c #54643C",
"6  c #58663C",
"7  c #566A3C",
"8  c #5A6C3D",
"9  c #5D7036",
"0  c #5D713D",
"q  c #627536",
"w  c #657936",
"e  c #62743D",
"r  c #6A763B",
"t  c #64793C",
"y  c #697C3C",
"u  c #525E40",
"i  c #556541",
"p  c #586742",
"a  c #566A42",
"s  c #5B6C42",
"d  c #59674B",
"f  c #5B6B48",
"g  c #5E7242",
"h  c #5F724A",
"j  c #616F46",
"k  c #627544",
"l  c #657944",
"z  c #6A7D44",
"x  c #63754A",
"c  c #667A4B",
"v  c #6A7D4B",
"b  c #6B7D50",
"n  c #6E785F",
"m  c #6B813E",
"M  c #788732",
"N  c #72843C",
"B  c #7A873C",
"V  c #798D3E",
"C  c #6D8245",
"Z  c #6D834B",
"A  c #718545",
"S  c #758A44",
"D  c #7A8D44",
"F  c #72854B",
"G  c #78864A",
"H  c #758B4B",
"J  c #7A8E4C",
"K  c #7D9345",
"L  c #7D924C",
"P  c #6E8251",
"I  c #728553",
"U  c #758A52",
"Y  c #7A8E52",
"T  c #748658",
"R  c #79865B",
"E  c #768958",
"W  c #7B8E5B",
"Q  c #7D9254",
"!  c #7C925A",
"~  c #7D9062",
"^  c #829644",
"/  c #859944",
"(  c #889B44",
")  c #83954C",
"_  c #859A4C",
"`  c #8A9D4D",
"'  c #808E5B",
"]  c #829553",
"[  c #849A53",
"{  c #8A9D53",
"}  c #82955B",
"|  c #849A5B",
" . c #889C5B",
".. c #919F54",
"X. c #8BA047",
"o. c #8FA44F",
"O. c #91A241",
"+. c #92A54C",
"@. c #94A94C",
"#. c #9AAB4D",
"$. c #9DB34F",
"%. c #8DA254",
"&. c #8CA15A",
"*. c #91A455",
"=. c #98A550",
"-. c #95AA54",
";. c #9BAE54",
":. c #91A55A",
">. c #96AA5B",
",. c #9BAD5B",
"<. c #9EB355",
"1. c #9DB25C",
"2. c #A2B64F",
"3. c #A7B94F",
"4. c #A3B655",
"5. c #AABB57",
"6. c #A1B45D",
"7. c #A8B758",
"8. c #A5BB5A",
"9. c #A9BC5D",
"0. c #AABD5E",
"q. c #B0BD56",
"w. c #819563",
"e. c #869C64",
"r. c #869768",
"t. c #899968",
"y. c #8EA260",
"u. c #91A361",
"i. c #94AA64",
"p. c #9AAE63",
"a. c #95A968",
"s. c #96AD68",
"d. c #9BAC6C",
"f. c #9FB466",
"g. c #9EB469",
"h. c #9DB271",
"j. c #A1B564",
"k. c #A5BB63",
"l. c #AABD63",
"z. c #A2B66A",
"x. c #A5BA6A",
"c. c #AABD69",
"v. c #ABBD6B",
"b. c #B1BC62",
"n. c #B2BF6A",
"m. c #A3B673",
"M. c #A3B872",
"N. c #ACBE72",
"B. c #A9C357",
"V. c #ACC25C",
"C. c #BACC55",
"Z. c #B2C55C",
"A. c #B5C95B",
"S. c #BCCE5C",
"D. c #BCD15F",
"F. c #ADC364",
"G. c #AFC862",
"H. c #ACC16C",
"J. c #B2C564",
"K. c #B8C767",
"L. c #B5CA62",
"P. c #BBCD63",
"I. c #B2C46A",
"U. c #B4CA6B",
"Y. c #BBCD6B",
"T. c #BBD163",
"R. c #BED166",
"E. c #BDD16B",
"W. c #AFC373",
"Q. c #B5C571",
"!. c #BCC670",
"~. c #B7CC77",
"^. c #B9CE71",
"/. c #B4C679",
"(. c #C3D35D",
"). c #C1CE69",
"_. c #C1D263",
"`. c #C3D36B",
"'. c #C2D86F",
"]. c #C2D371",
"[. c #8F9881",
"{. c #AFC481",
/* pixels */
"# ; # O O . = n [.= = . $ = . d ; ; $ # $ $ # $ # . # # # ; - $     O # # # = . * # # O # & ",
"# 2 X o 0 j : . u . $ > + $ = # = i i ; i = # O # O O # # a i i 5 1 & X & 1 s ; * * # # # # ",
"2 e 3 , G z 2 2 > $ & 6 6 : : 8 X 6 j s j d 6 j 7 2 @ a h 6 8 a g 5 2   1 c c s * = = & & & ",
"e u.S B D S G 0 8 6 : 8 0 q r  .4 r } F 8 k e I c & X c r.8 g k g g 3 3 g g c c $ & e Z G e ",
"< d.N.v.*.:.[ z 6 8 k 8 F v.;.l.;.;.v.{ ) S v t.v @ : j I k k I I U g 0 Z g g 8 X r ] ,.v.*.",
"` j.^.).J.k.,.) e 5 R ) ] !.;.9._.P.P.9.n.;.] ' r G } v 4 l F i.s.&.Q C C H g 8 q A / l.Y.J.",
"^ 3._.(.D.Z.7.,...r q ) ;.7.b.!.).(.(.q.).).,.` V { ] v 8 z [ 0.G.G.1.k.%.S a.C H :.6.V.T.S.",
"( =.`._.A.P.4.I.N.G r ..I.7.+.k.].`.4.O.4.0.j./.j.) [ w.l z &.V.G.^.B.H.L S Q C A i.~.U.P.L.",
"-.7.Y.P.A.L.<.H.&.A { ` F.I.` { ,.I.@.@.+./ { p...) Y ! l C j.L.T.E.G.1.K Q H Z Q L -.1.B.1.",
") v.l.Y.^.F.-./ m C G ` ~.Q.&.^ ) :.-.F.8.( ) { ) [ J } z q %.Z.Z.L.9.G.*.[ H Z Z S Q K K X.",
"A &.*.j.%.k.` ) y 9 z ) ,.{ ` ;.:.[ z.E.A.9.` z.p.` G Y y z z.P.Y.4.o.U.g.L L A H H L L D L ",
"F H L { J D A A z 0 Z ] ) D / 5.k.L f.'.T.T.F.U.l.c.{ z 8 t :.v.U.o.X./ %.Q H H Q Q S Q ! &.",
"C 0 C Q Q C C U Z k P Y H ) <.Z.J...n.Y._.D.P.T.P.^.:.r e z  ...>.o.L N @.Q K Q L %.L L Q ! ",
"Q l Z Z Z Z Q Q k x ~ Z z *.Y.).P.=.Q.]._.S.A.A.P.Y.p.0 0 8 v z m L D K L Q 1.Q o.L Q Q C U ",
"! C h l 8 8 F H 3 Z w.k 3 ) I.`.A.M B n.#.Z.4.B.8.H.S k k l v v Z H L -.B.k.G.-.@.k.Q K Z H ",
"U Z 0 0 8 l q y y Z P 4 G ] ^ 7.K.O.y ] N 4.+.-.-.v.) l j l W T P Q L f.G.G.T.G.G.G.K S Z l ",
"H v 8 5 l [ S D &.Y Y e s.! m H.J.l.w 8 ! ` _ [ [ u.F 8 8 4 U x g m A 8.T.G.D.D.D.G.1.A | z ",
"H l s s z { <.j.Q.x. .H m 0 0 H K ,.Z x W A ! | ] G k ~ v 5 0 a C C K <.D.T.C.(.D.L.l.D a.U ",
"H z e l ) 7.`.A._.L.l.[ C 0 a g 8 0 l k c h Z U I 0 e Y T a d a g S / 4.A.D.T.S.D.L.U.*.S F ",
" .} v k ) K.Y.S.A._.G.D A g g h 0 8 g g g 8 3 3 r r G k k g g g g L -.U.E.L.T.T.A.$.v.X.J } ",
"m.] Z g N J.E.K.V.4.+.>.M.~ P P h 0 7 h 0 3 N C 4 F R 4 0 z t v U Q / <.9.5.J.Z.B.` >.L  .e.",
"a.F Z v w ,.I.G.-.<.K g.h.P P P g 7 P y.y Z L L r W T s k J F P ! s.g.%./ ;.n.6.U.-.k.H U I ",
"L C Z C t S _ H.&.%.K H m m P P g 3 l U Z ! &.Q v I c k g e 9 l } h.g.%.( %.-.*.i.D J U ! I ",
"Q F Z l 4 8 C ! J J Z t 3 a h C 7 7 h 0 0 U Q H I Z I v l 8 0 g Z L Q _ { ) { [ J C C U E v ",
"] H F Z 8 s 8 l Z g 0 g 0 0 a a 7 g Z ! Q C H U ] _ [ Q ! I g 3 l H } | ] [ J ] H z Z Z k 8 ",
"! Y I v a 7 s s I C Z Z U C 3 1 a g h U Q m C %.%.<.@.k.x.H e 0 0 F J Y ! ] H F Z k k k e y ",
"H U Z s i j 8 z H H ! U ~ P m a a 7 g Z C L L o.F.L.B.G.6.[ ! v 0 l l v I I F Z I 8 8 0 l G ",
"Z F c s x R e ] Q L &.Q ~ Q ! C g 7 g g C Q %.<.U.V.G.B.c.g.H v h 8 7 g l v Z v P l 3 4 q D ",
"z c b j x W z ^ -.o.( Q ! ! U U Z a g g Z H D g.H.*._ _ p.{ C v k p 8 8 0 h Z C l 0 l Q J D ",
"l 8 j s j 4 y ` F.F.L J Z Z Q ! g a a 7 C Z S &.y.J C C Y C Z b a s s a g Z h l 8 3 y.{.z.K ",
"x s 0 8 x 6 ' ..:.Q Z m m P E P 7 a g C U W Z U ! U Z g c I P k 8 c h s a h g g 0 0 0 ! g.J ",
"g s 6 k w.v c  .! Z C g a m m 0 g h a Z c Z Z P U g l 0 0 k x a l v h 7 g U P 0 0 g 3 !  .r ",
"s s 0 g b k k } W N z k 8 8 8 4 x T k 4 8 c c l g 3 t l 0 0 g g 7 7 h a j I k j c 0 3 Z Z C ",
"s 8 g 0 l j 0 z F z l k j 4 8 8 x c s 8 g v g 7 0 0 C Z C H Z 3 7 7 7 a 8 j 4 v U h 8 l Z L ",
"8 g 8 0 b v k 4 e z 0 8 s 8 8 s s a 8 s k c s 7 g C Y ! H U U g 8 s s s s 6 8 E W k 0 Z Z Q ",
"g l 0 0 k k 8 8 e k 8 6 p l k s s s a j s k g g m U ! &.Q U U Z 8 s a s s j 8 v c h g 7 h ! ",
"c P h 0 0 s 8 8 v 8 8 s s k 8 s s s p s 8 8 s P T U ! ! H H Z h 8 s s s p s j 8 7 Z h 3 0 g ",
"x P P Z g a 5 8 j 6 : > 6 j s p 6 i p p 5 5 7 v W U Q Q C C m a p 6 a i s s s k a g h g 0 3 ",
"h h U Z 7 ; 1 a 8 6 & : s j p 6 $ > > > & 2 7 g E U C Z m C Z Z 6 & 2 5 p s 6 j g a a h h c ",
"a a c h 1 # & s f p & > j j 6 > # $ $ $ & 2 a 0 C Z Z P Z m h a a & $ & & 6 a 8 g a a g Z P ",
"% a a a & O 1 1 p ; # 2 i j s > # # . # & > 8 0 8 C Z 0 k c v s 2 & # # & p s 2 a a s s P h ",
"- 5 5 7 X & % O = & % ; i a j > $ - . $ + : 7 7 8 l g 0 g h c 8 & O $ # 5 s k a s a a s h a ",
"& & $ & # % # # # % ; % - f i ; - & - & + $ p 6 5 a a a s a 5 2 + # # & i > 5 6 f i i d f f ",
"$ O O # # % # # $ % % # % - # # - - - % # $ p & 1 1 - a i 1 O & O O # = $ $ O & i -   -   i ",
"+ + # $ % & & & & % % % % % & % % %   % % % & & %   O O & O O # O # $ $ ; $ $ # . - # # % # ",
"O $ $ # # @ % & & & O % % $ # # % % %   % % % @ % X   @ + . O   # # $ . . #   # . # . # % - "
};
